PathFileType	4	(X/Y/Z)	SUBJ62_0_static_RCNL2025.trc
DataRate	CameraRate	NumFrames	NumMarkers	Units	OrigDataRate	OrigDataStartFrame	OrigNumFrames
100	100	6	25	mm	100	1	85
Frame#	Time	R_Shoulder			L_Shoulder			C7			J_Notch			R_Elbow			L_Elbow			R_Wrist			L_Wrist			R_Asis			L_Asis			Sacral			Thoracic			Sternum			R_Thigh_Lateral			R_Knee_Lateral			R_Shank_Lateral			R_Ankle_Lateral			R_Heel			R_Toe			L_Thigh_Lateral			L_Knee_Lateral			L_Shank_Lateral			L_Ankle_Lateral			L_Heel			L_Toe		
		X1	Y1	Z1	X2	Y2	Z2	X3	Y3	Z3	X4	Y4	Z4	X5	Y5	Z5	X6	Y6	Z6	X7	Y7	Z7	X8	Y8	Z8	X9	Y9	Z9	X10	Y10	Z10	X11	Y11	Z11	X12	Y12	Z12	X13	Y13	Z13	X14	Y14	Z14	X15	Y15	Z15	X16	Y16	Z16	X17	Y17	Z17	X18	Y18	Z18	X19	Y19	Z19	X20	Y20	Z20	X21	Y21	Z21	X22	Y22	Z22	X23	Y23	Z23	X24	Y24	Z24	X25	Y25	Z25
1	0.00000000	-298.502930	1299.411133	-69.442978	-307.422882	1301.385132	-407.315002	-369.039093	1359.175537	-241.405121	-236.301224	1275.984131	-243.573471	-358.525208	1014.044922	13.441868	-328.035492	1014.507874	-505.997986	-292.300232	802.476440	23.116353	-273.807663	802.090973	-509.209335	-241.190598	877.983948	-96.470543	-235.393890	866.653870	-356.268921	-412.110687	884.500732	-233.230957	-422.541077	1162.179199	-239.229675	-213.734238	1076.968994	-240.456100	-351.022827	500.223602	-17.529560	-361.271851	435.286133	-91.137512	-375.304443	260.284302	-47.285816	-373.360107	64.979668	-119.790863	-418.467041	47.209816	-165.960312	-267.407410	47.974354	-122.959740	-356.697723	479.899750	-408.955322	-378.526855	416.954407	-360.190765	-380.242920	224.141190	-394.686218	-370.240234	54.950008	-326.042694	-420.583649	51.142498	-274.798370	-259.702209	39.242714	-328.988770
2	0.01000000	-298.361572	1299.423218	-69.563408	-307.416199	1301.415894	-407.400482	-368.942505	1359.158203	-241.479401	-236.271774	1276.013672	-243.601395	-358.525208	1014.044922	13.441868	-328.029266	1014.529968	-506.015442	-292.349640	802.470978	23.054100	-273.893463	802.092926	-509.203613	-241.215927	877.963257	-96.396530	-235.425400	866.591797	-356.223022	-412.096161	884.580688	-233.255905	-422.546417	1162.183228	-239.237595	-213.870621	1076.951660	-240.479065	-350.987732	500.220428	-17.542343	-360.779053	435.454651	-90.996849	-375.226807	260.299957	-47.445927	-373.387726	65.017776	-119.789497	-418.503357	47.228188	-165.973648	-267.407410	47.974354	-122.959740	-356.699188	479.875458	-408.956421	-378.519318	416.951599	-360.106659	-380.244049	224.142868	-394.692841	-370.165466	54.881180	-326.067413	-420.596771	51.156063	-274.776215	-259.272522	39.485233	-328.948669
3	0.02000000	-298.347534	1299.424683	-69.577332	-307.388245	1301.417480	-407.445007	-368.952789	1359.164673	-241.460846	-235.826416	1276.004761	-243.901337	-358.542053	1014.076050	13.451967	-328.066376	1014.497986	-505.999969	-292.417084	802.473877	23.000219	-273.892609	802.077362	-509.239029	-241.318497	877.956299	-96.509537	-235.510468	866.637329	-356.289581	-412.079834	884.542786	-233.268555	-422.608337	1162.231201	-239.303665	-213.863922	1076.999878	-240.511749	-351.006836	500.227600	-17.535652	-355.792725	437.636169	-89.858719	-375.341156	260.289062	-47.353664	-373.401031	65.032913	-119.747940	-418.555634	47.243782	-166.035217	-267.408722	47.975430	-122.948814	-356.759827	479.873108	-408.920898	-378.526489	416.957397	-360.149780	-380.278839	224.132584	-394.723480	-370.232971	54.966122	-326.064362	-420.656952	51.214546	-274.748535	-259.642853	39.261196	-329.013000
4	0.03000000	-298.348572	1299.416748	-69.576202	-307.359894	1301.416382	-407.477753	-368.914734	1359.113159	-241.509445	-236.141647	1275.948242	-243.754578	-358.514404	1014.149353	13.433454	-328.038208	1014.491455	-506.069153	-292.434509	802.465790	23.005887	-273.910141	802.039948	-509.209030	-241.346603	877.937866	-96.506897	-235.528107	866.610901	-356.330841	-412.148621	884.549561	-233.227005	-422.565521	1162.217529	-239.359985	-213.793701	1076.981689	-240.555618	-351.009521	500.309418	-17.551062	-355.130371	437.649475	-89.910324	-375.308716	260.291595	-47.363708	-373.429596	65.053436	-119.751022	-418.521790	47.193584	-166.005859	-267.408081	47.974621	-122.958580	-356.794250	479.918213	-408.894073	-378.603210	416.897766	-360.063995	-380.274139	224.102966	-394.758179	-370.173828	54.888626	-326.066193	-420.651550	51.257233	-274.864380	-259.677490	39.244366	-329.029663
5	0.04000000	-298.302155	1299.409790	-69.617432	-307.348633	1301.412964	-407.484711	-368.898651	1359.181885	-241.536346	-236.234314	1275.933594	-243.708817	-358.596649	1014.156982	13.375355	-327.972504	1014.449829	-506.064423	-292.509918	802.486328	22.952348	-273.829926	802.029205	-509.202332	-241.261917	877.973694	-96.573830	-235.525055	866.612000	-356.307831	-412.076355	884.536499	-233.297745	-422.467133	1162.184570	-239.435242	-213.759918	1077.015015	-240.621078	-351.054413	500.297729	-17.626204	-355.415741	437.583008	-89.872566	-375.330170	260.302673	-47.359890	-373.353912	65.037674	-119.787209	-418.513672	47.169693	-166.049179	-267.387787	47.960281	-122.993324	-356.765137	479.890808	-408.907227	-378.605499	416.898132	-360.097198	-380.275757	224.109650	-394.754700	-370.168640	54.888943	-326.058899	-420.574677	51.222427	-274.815247	-259.677948	39.233395	-329.016083
6	0.05000000	-298.293671	1299.380615	-69.684631	-307.269470	1301.411987	-407.558838	-368.825378	1359.170410	-241.583969	-235.636032	1276.006470	-244.057098	-358.570160	1014.124634	13.340603	-328.062439	1014.424011	-506.148712	-292.528992	802.473785	22.945794	-273.900421	802.043396	-509.236191	-241.279709	877.858704	-96.565132	-235.523499	866.629395	-356.303406	-412.029572	884.535828	-233.308441	-422.446411	1162.245239	-239.465073	-213.757095	1077.000854	-240.603531	-351.080444	500.301697	-17.624041	-355.475128	437.640717	-89.891457	-375.290802	260.328278	-47.390495	-373.381592	64.998497	-119.761230	-418.475708	47.185211	-166.104416	-267.404266	47.973442	-122.953293	-356.865662	479.941010	-408.969116	-378.607544	416.918518	-360.109589	-380.280304	224.101654	-394.752838	-370.239716	54.957481	-326.046967	-420.651001	51.213310	-274.749695	-259.730194	39.222336	-328.977509
